<svg width="738" height="738" viewBox="0 0 738 738" fill="none" xmlns="http://www.w3.org/2000/svg">
<path d="M411.393 11.0177C412.658 11.0119 413.924 11.006 415.228 11C418.701 11.3015 418.701 11.3015 420.576 12.3205C424.55 14.1862 428.754 14.8777 433.033 15.7337C434.025 15.9375 435.017 16.1412 436.039 16.3511C439.34 17.0274 442.643 17.6943 445.946 18.3611C448.275 18.8361 450.604 19.3116 452.934 19.7876C459.157 21.0573 465.383 22.3185 471.609 23.5772C475.45 24.3542 479.291 25.1332 483.132 25.9128C500.248 29.3866 517.368 32.8394 534.492 36.2762C535.946 36.5682 535.946 36.5682 537.429 36.8661C547.162 38.8206 556.897 40.7629 566.641 42.6654C569.023 43.1312 571.405 43.6002 573.787 44.0727C576.993 44.7072 580.202 45.3277 583.413 45.9432C584.732 46.2076 584.732 46.2076 586.078 46.4772C592.381 47.6588 598.472 47.8066 604.875 47.6283C604.875 48.3775 604.875 49.1268 604.875 49.8987C605.616 50.0919 606.356 50.2851 607.119 50.4841C622.616 54.781 630.017 64.572 637.796 78.0662C638.975 80.0667 640.154 82.0666 641.335 84.0659C642.175 85.4974 642.175 85.4974 643.032 86.9577C645.078 90.4298 647.163 93.8711 649.29 97.2938C649.879 98.2479 650.467 99.202 651.073 100.185C651.806 101.142 651.806 101.142 652.554 102.118C653.303 102.118 654.053 102.118 654.825 102.118C654.887 102.853 654.95 103.588 655.015 104.345C656.391 109.369 659.155 113.252 661.991 117.586C663.238 119.526 664.486 121.467 665.733 123.408C666.373 124.398 667.014 125.387 667.673 126.406C672.922 134.536 678.058 142.738 683.205 150.933C684.074 152.312 684.074 152.312 684.961 153.718C686.679 156.45 688.384 159.189 690.087 161.93C690.601 162.745 691.116 163.56 691.646 164.4C701.923 181.057 697.629 194.199 693.364 212.438C692.893 214.474 692.424 216.51 691.954 218.546C690.701 223.975 689.439 229.403 688.175 234.83C686.858 240.492 685.55 246.156 684.241 251.82C681.696 262.83 679.142 273.838 676.586 284.845C673.771 296.967 670.965 309.09 668.163 321.214C667.911 322.306 667.658 323.399 667.398 324.524C662.345 346.376 657.398 368.252 652.464 390.13C651.851 392.847 651.238 395.563 650.624 398.279C649.658 402.56 648.694 406.84 647.731 411.121C647.375 412.702 647.019 414.283 646.662 415.863C645.585 420.637 644.525 425.415 643.472 430.195C643.082 431.905 643.082 431.905 642.683 433.65C642.348 435.179 642.348 435.179 642.007 436.738C641.811 437.609 641.616 438.48 641.414 439.377C640.971 441.761 640.971 441.761 642.776 444.332C644.069 445.341 644.069 445.341 645.388 446.371C674.518 471.882 691.61 513.838 696.242 551.605C696.58 557.73 696.668 562.814 692.854 567.839C665.609 593.344 619.436 606.64 582.845 605.474C576.747 605.087 571.552 603.595 566.278 600.476C565.529 600.102 564.78 599.727 564.008 599.341C563.227 597.459 562.473 595.565 561.737 593.665C560.731 592 559.675 590.365 558.575 588.761C557.672 587.428 557.672 587.428 556.751 586.069C555.812 584.701 555.812 584.701 554.855 583.306C553.608 581.485 552.365 579.661 551.126 577.834C550.575 577.032 550.025 576.23 549.458 575.404C548.115 573.231 548.115 573.231 546.979 569.826C545.481 569.826 543.982 569.826 542.439 569.826C542.813 569.076 543.188 568.327 543.574 567.555C542.463 564.222 541.133 561.9 539.25 558.952C538.595 557.924 537.94 556.895 537.265 555.835C536.56 554.739 535.856 553.643 535.131 552.514C534.41 551.388 533.69 550.263 532.948 549.104C527.136 540.046 521.276 531.026 515.194 522.147C514.714 521.444 514.234 520.742 513.74 520.018C506.219 507.674 506.219 507.674 495.895 498.307C490.216 498.768 485.795 500.849 480.871 503.535C479.716 504.151 479.716 504.151 478.539 504.78C476.914 505.648 475.292 506.522 473.673 507.399C471.232 508.722 468.784 510.031 466.335 511.338C458.624 515.468 450.998 519.671 443.572 524.303C439.029 526.922 435.209 527.289 430.053 526.688C426.165 524.329 422.717 521.811 421.317 517.375C421.203 516.702 421.089 516.029 420.971 515.335C420.222 515.335 419.472 515.335 418.701 515.335C418.326 516.085 417.951 516.834 417.565 517.606C414.794 519.029 414.794 519.029 411.251 520.515C410.102 521.008 408.953 521.501 407.77 522.009C403.943 523.282 403.943 523.282 394.861 524.417C399.357 531.91 403.852 539.402 408.484 547.121C413.99 546.335 418.417 545.537 423.609 543.92C425.627 543.294 425.627 543.294 427.684 542.656C429.805 541.987 429.805 541.987 431.968 541.303C433.44 540.843 434.911 540.382 436.383 539.922C446.856 536.629 457.248 533.13 467.581 529.424C468.737 529.01 468.737 529.01 469.915 528.589C471.86 527.893 473.805 527.195 475.749 526.497C481.663 524.705 486.886 524.566 492.56 527.113C500.609 534.306 506.145 543.138 511.708 552.276C516.077 559.381 520.918 566.085 525.847 572.809C529.834 578.263 533.581 583.795 537.139 589.541C539.356 593.04 541.7 596.442 544.07 599.838C547.267 604.417 550.423 609.017 553.507 613.673C557.973 620.403 562.527 627.069 567.096 633.729C570.568 638.789 574.027 643.858 577.466 648.94C581.657 655.13 585.87 661.303 590.117 667.454C590.645 668.218 591.172 668.982 591.716 669.769C604.463 688.058 620.633 693.546 641.743 698.042C647.575 699.788 651.436 702.104 654.825 707.186C655.618 712.632 655.636 717.147 652.838 721.944C647.685 726.524 643.387 726.947 636.661 727.62C636.661 726.871 636.661 726.121 636.661 725.35C635.668 725.177 635.668 725.177 634.654 725C617.813 721.873 599.111 716.949 585.577 706.051C584.776 705.463 583.976 704.874 583.151 704.268C577.175 699.555 573.337 693.81 569.302 687.404C567.533 684.443 567.533 684.443 565.143 682.212C564.029 680.501 562.947 678.771 561.879 677.032C558.298 671.337 554.501 665.837 550.598 660.359C546.364 654.41 542.201 648.433 538.182 642.337C536.2 639.354 534.211 636.375 532.222 633.397C531.536 632.368 530.851 631.338 530.144 630.278C527.826 626.813 525.485 623.364 523.14 619.917C522.413 618.823 521.686 617.73 520.937 616.604C513.703 606.045 505.025 597.914 493.979 591.466C492.421 590.527 490.865 589.585 489.31 588.641C488.527 588.167 487.745 587.694 486.939 587.206C482.143 584.229 477.494 581.026 472.846 577.826C469.361 575.219 469.361 575.219 465.244 574.366C464.87 573.617 464.495 572.868 464.109 572.096C462.985 572.471 461.861 572.845 460.703 573.231C460.703 572.107 460.703 570.983 460.703 569.826C458.518 567.525 458.518 567.525 455.027 566.42C446.392 567.922 438.116 570.669 429.769 573.302C427.162 574.122 424.555 574.94 421.947 575.754C420.234 576.295 420.234 576.295 418.487 576.846C409.841 579.355 402.71 580.161 394.617 575.732C391.749 573.799 389.991 571.533 388.05 568.69C385.19 564.504 385.19 564.504 380.955 562.092C380.299 562.022 379.644 561.951 378.968 561.879C379.343 560.755 379.717 559.631 380.103 558.473C380.103 550.74 373.336 542.565 369.532 536.266C368.777 534.991 368.023 533.715 367.246 532.401C366.506 531.17 365.766 529.938 365.004 528.67C364.335 527.554 363.666 526.438 362.976 525.288C360.665 521.945 357.997 519.336 355.129 516.471C354.206 513.278 354.206 513.278 353.993 510.795C350.997 511.169 348 511.544 344.912 511.93C344.66 513.361 344.408 514.792 344.149 516.267C342.415 524.91 339.946 533.354 337.509 541.821C336.687 544.691 335.884 547.567 335.081 550.443C326.19 581.735 326.19 581.735 311.569 590.206C305.135 593.621 298.605 596.629 291.748 599.093C290.84 599.422 289.932 599.751 288.997 600.09C287.256 600.708 285.504 601.298 283.742 601.855C276.905 604.247 273.343 607.688 269.988 614.099C267.51 620.173 265.509 626.365 263.531 632.617C262.947 634.42 262.36 636.222 261.773 638.024C258.742 647.36 255.805 656.727 252.867 666.092C252.586 666.987 252.305 667.882 252.015 668.804C250.675 673.081 249.342 677.361 248.026 681.645C240.684 705.448 240.684 705.448 235.08 711.585C234.383 712.378 233.687 713.171 232.969 713.989C226.654 719.293 219.027 721.784 211.17 723.931C210.279 724.174 209.388 724.418 208.47 724.669C200.472 726.743 192.705 728.34 184.847 725.066C179.414 720.312 179.414 720.312 178.847 716.175C178.636 710.635 179.026 707.137 182.577 702.645C185.738 701.217 185.738 701.217 189.459 700.233C190.771 699.867 192.084 699.501 193.436 699.124C195.366 698.62 195.366 698.62 197.334 698.104C199.419 697.549 201.5 696.983 203.578 696.402C204.433 696.179 205.287 695.957 206.168 695.728C211.007 693.751 213.816 691.255 216.152 686.562C216.678 685.132 217.183 683.695 217.671 682.251C217.952 681.461 218.233 680.671 218.522 679.857C221.773 670.571 224.627 661.151 227.475 651.736C229.07 646.477 230.694 641.228 232.317 635.978C232.633 634.957 232.949 633.937 233.274 632.885C246.899 588.865 246.899 588.865 262.33 579.847C271.581 575.137 281.372 571.429 291.009 567.594C296.314 565.695 296.314 565.695 299.636 561.538C300.132 560.021 300.132 560.021 300.639 558.473C301.016 557.568 301.394 556.662 301.783 555.729C307.239 542.202 311.203 528.157 315.396 514.2C314.085 514.06 312.774 513.919 311.423 513.775C306.56 513.175 301.963 512.062 297.233 510.795C296.601 511.823 295.969 512.852 295.317 513.912C280.23 538.146 280.23 538.146 267.717 542.581C259.492 543.966 251.371 543.803 243.049 543.707C240.779 543.692 238.51 543.677 236.24 543.664C230.678 543.629 225.115 543.583 219.553 543.521C216.419 543.487 213.284 543.461 210.149 543.446C207.205 543.431 204.262 543.402 201.318 543.359C199.984 543.355 198.65 543.351 197.276 543.347C196.106 543.336 194.936 543.325 193.73 543.314C189.984 543.783 187.883 544.913 184.847 547.121C182.942 549.681 182.942 549.681 181.463 552.695C180.58 554.364 180.58 554.364 179.679 556.067C179.067 557.259 178.454 558.451 177.823 559.68C176.504 562.181 175.184 564.682 173.863 567.183C173.218 568.414 172.573 569.646 171.909 570.914C169.524 575.438 167.055 579.91 164.555 584.37C163.641 586.008 162.728 587.646 161.815 589.284C161.331 590.149 160.848 591.015 160.35 591.907C157.788 596.502 155.238 601.103 152.686 605.703C150.134 610.301 147.578 614.895 145.021 619.49C142.458 624.096 139.909 628.711 137.363 633.326C135.974 635.834 134.584 638.34 133.195 640.847C132.57 641.987 131.944 643.126 131.3 644.3C127.243 651.598 122.783 658.434 117.869 665.183C117.103 666.254 117.103 666.254 116.321 667.347C115.031 669.143 113.719 670.924 112.406 672.704C111.556 673.866 110.706 675.028 109.83 676.225C109.111 677.077 108.393 677.928 107.653 678.806C106.903 678.806 106.154 678.806 105.382 678.806C105.129 679.456 104.876 680.105 104.615 680.775C97.9655 692.151 78.0725 701.194 66.0045 704.916C60.3519 706.265 54.8969 706.242 49.1138 705.949C46.1421 705.745 46.1421 705.745 44.0807 708.321C42.9455 704.916 42.9455 704.916 42.9455 702.645C42.3938 702.151 41.8421 701.656 41.2737 701.146C38.3983 697.984 39.0008 694.748 39.1674 690.655C39.7389 686.409 40.6975 684.887 44.0807 682.212C47.1162 680.892 50.1726 679.803 53.3132 678.757C63.6121 675.319 74.9937 670.663 81.5427 661.778C82.2919 661.778 83.0412 661.778 83.8131 661.778C85.359 659.912 86.8664 658.014 88.3539 656.102C89.2303 655.258 90.1067 654.414 91.0096 653.545C94.2618 650.186 96.8742 646.623 99.4311 642.732C100.165 641.622 100.165 641.622 100.913 640.489C105.824 632.927 110.059 625.052 114.192 617.046C115.942 613.656 117.713 610.278 119.483 606.899C120.367 605.209 121.251 603.519 122.133 601.828C125.675 595.045 129.299 588.311 132.982 581.603C134.051 579.657 135.119 577.71 136.188 575.763C136.714 574.805 137.24 573.847 137.782 572.86C140.228 568.38 142.639 563.882 145.054 559.385C147.51 554.826 149.988 550.279 152.475 545.736C153.585 543.7 154.689 541.66 155.785 539.616C166.574 519.535 166.574 519.535 179.171 515.335C181.665 515.224 184.162 515.182 186.658 515.174C187.791 515.168 187.791 515.168 188.947 515.162C190.586 515.154 192.225 515.148 193.864 515.144C196.46 515.136 199.056 515.118 201.652 515.097C209.032 515.038 216.413 514.983 223.793 514.965C228.31 514.954 232.825 514.921 237.341 514.873C239.06 514.859 240.779 514.853 242.498 514.856C244.906 514.859 247.312 514.833 249.72 514.802C251.773 514.792 251.773 514.792 253.867 514.782C258.213 514.086 260.055 512.701 263.177 509.659C265.26 506.774 265.26 506.774 266.937 503.7C267.518 502.687 268.099 501.674 268.697 500.631C269.123 499.864 269.549 499.097 269.988 498.307C269.338 498.007 268.688 497.707 268.019 497.398C263.323 494.913 259.346 491.425 255.23 488.09C254.04 487.136 254.04 487.136 252.827 486.161C247.708 481.889 243.731 477.299 239.843 471.883C239.03 470.915 239.03 470.915 238.202 469.927C237.453 469.927 236.703 469.927 235.931 469.927C235.642 468.97 235.352 468.013 235.053 467.027C233.293 462.081 230.898 457.554 228.428 452.939C226.443 449.109 225.715 447.106 225.715 442.682C224.639 443.281 224.639 443.281 223.542 443.892C220.116 445.783 216.673 447.639 213.227 449.493C212.089 450.121 210.95 450.749 209.777 451.396C186.549 463.688 160.098 471.426 133.762 472.197C132.485 472.243 131.207 472.288 129.891 472.335C116.116 472.594 103.413 470.733 90.3317 466.41C87.3264 465.364 87.3264 465.364 84.5936 464.805C83.9614 464.622 83.3292 464.439 82.6779 464.251C81.9211 462.737 81.1643 461.224 80.4075 459.71C79.3539 458.914 78.3002 458.118 77.2147 457.298C69.9182 451.482 66.7286 441.465 65.6497 432.465C63.8516 414.068 70.0863 396.472 78.137 380.245C78.7575 378.974 79.378 377.702 80.0172 376.392C86.9644 362.842 95.7412 351.041 106.167 339.981C108.608 337.304 110.759 334.561 112.903 331.644C117.252 325.926 122.518 321.951 128.751 318.413C132.202 316.199 134.632 314.236 137.168 310.997C138.279 305.659 138.08 300.574 137.698 295.178C137.402 290.852 137.316 286.522 137.226 282.187C137.205 281.335 137.185 280.484 137.164 279.607C136.725 253.078 150.268 228.299 167.947 209.245C183.716 193.009 203.501 181.961 224.579 174.204C225.353 173.914 226.128 173.624 226.925 173.325C232.392 171.424 236.953 170.958 242.743 171.366C246.615 173.303 248.854 174.812 251.186 178.461C252.071 182.787 252.203 186.518 250.689 190.665C245.679 196.745 238.961 199.357 231.745 201.946C207.05 211.348 185.205 226.659 173.332 250.908C168.325 262.207 165.334 274.027 165.477 286.377C165.483 287.218 165.488 288.059 165.493 288.925C165.506 290.985 165.527 293.045 165.548 295.104C171.819 295.104 176.311 294.342 181.441 290.564C184.115 286.272 186.134 281.859 188.222 277.265C197.324 257.41 214.986 240.393 233.16 228.77C235.994 227.091 235.994 227.091 238.202 224.721C255.175 215.074 283.514 201.126 303.689 204.784C308.425 207.018 310.484 208.829 313.126 213.369C314.124 218.387 313.772 222.234 311.565 226.85C307.167 230.41 302.672 231.321 297.233 232.668C264.944 240.852 235.875 255.035 217.267 284.032C216.245 285.801 215.292 287.609 214.362 289.428C216.89 290.195 219.421 290.949 221.954 291.699C224.068 292.331 224.068 292.331 226.225 292.976C230.073 294.11 230.073 294.11 233.399 293.898C235.931 293.969 235.931 293.969 237.634 295.459C238.196 296.091 238.758 296.724 239.337 297.375C241.211 298.54 243.106 299.671 245.013 300.78C261.743 311.306 270.846 325.069 275.664 343.919C275.888 344.777 276.112 345.636 276.342 346.522C277.029 351.139 276.962 355.718 276.941 360.379C276.945 361.335 276.95 362.29 276.954 363.275C276.947 367.943 276.839 372.288 275.664 376.84C276.492 376.882 277.32 376.925 278.174 376.968C289.22 377.664 299.97 379.438 310.855 381.38C309.357 381.006 307.858 380.631 306.315 380.245C306.315 379.496 306.315 378.747 306.315 377.975C308.188 377.6 310.061 377.226 311.991 376.84C312.124 375.603 312.257 374.367 312.394 373.093C313.162 367.003 314.448 361.052 315.751 355.058C316.031 353.754 316.31 352.451 316.599 351.108C318.79 340.993 321.094 330.905 323.418 320.82C324.041 318.107 324.663 315.394 325.286 312.681C326.533 307.248 327.793 301.818 329.06 296.39C329.647 293.839 330.233 291.288 330.819 288.737C331.096 287.568 331.372 286.4 331.657 285.196C333.096 278.873 333.857 273.209 333.56 266.724C334.309 266.35 335.058 265.975 335.83 265.589C336.796 262.609 336.796 262.609 337.542 258.973C337.842 257.619 338.142 256.266 338.451 254.871C338.91 252.731 338.91 252.731 339.378 250.547C339.692 249.138 340.007 247.729 340.331 246.277C342.027 239.171 342.027 239.171 342.588 231.933C342.649 228.863 343.483 227.405 344.912 224.721C345.511 222.555 346.049 220.372 346.544 218.181C346.833 216.91 347.123 215.639 347.422 214.329C347.865 212.344 347.865 212.344 348.317 210.318C348.761 208.366 348.761 208.366 349.213 206.374C350.429 201.008 351.628 195.639 352.814 190.266C353.66 186.443 354.538 182.628 355.424 178.814C356.14 175.729 356.85 172.643 357.56 169.557C357.927 167.966 358.297 166.375 358.67 164.785C359.214 162.459 359.749 160.131 360.281 157.801C360.759 155.741 360.759 155.741 361.247 153.639C362.056 149.842 362.056 149.842 361.902 146.104C361.94 142.986 361.94 142.986 364.21 139.58C365.01 136.712 365.721 133.874 366.376 130.973C366.681 129.66 366.681 129.66 366.992 128.32C367.665 125.416 368.328 122.51 368.991 119.603C369.46 117.57 369.929 115.537 370.399 113.504C371.639 108.133 372.87 102.759 374.1 97.3859C375.336 91.9935 376.581 86.6031 377.824 81.2124C379.447 74.1704 381.069 67.1284 382.683 60.0844C383.104 58.2476 383.526 56.411 383.949 54.5748C384.995 50.0203 386.002 45.4619 386.945 40.885C387.137 39.9726 387.329 39.0602 387.526 38.1202C387.883 36.4125 388.231 34.7027 388.565 32.9906C390.102 25.6997 392.571 18.6296 398.267 13.572C402.699 11.2914 406.444 10.9948 411.393 11.0177ZM415.295 41.9523C409.637 65.1239 404.199 88.3406 398.876 111.591C398.042 115.232 397.207 118.872 396.372 122.512C389.929 150.6 383.528 178.698 377.152 206.801C376.98 207.559 376.808 208.317 376.631 209.097C376.46 209.853 376.288 210.608 376.112 211.386C375.941 212.138 375.77 212.891 375.594 213.666C375.252 215.176 374.909 216.685 374.567 218.195C372.053 229.272 369.53 240.347 367 251.421C366.676 252.838 366.352 254.256 366.018 255.716C365.698 257.117 365.378 258.517 365.048 259.959C360.106 281.587 355.167 303.214 350.397 324.88C348.428 333.82 346.414 342.748 344.362 351.67C343.644 354.805 342.927 357.941 342.21 361.076C341.746 363.093 341.28 365.11 340.81 367.126C340.16 369.92 339.519 372.717 338.881 375.514C338.686 376.336 338.492 377.158 338.291 378.006C337.165 382.997 336.533 387.62 336.965 392.733C339.294 394.951 341.074 396.317 343.777 397.912C345.144 398.791 346.512 399.67 347.878 400.55C349.147 401.342 350.416 402.134 351.723 402.949C356.263 405.958 359.998 408.698 363.319 413.073C366.09 416.688 368.452 419.585 372.157 422.248C377.827 422.313 382.684 420.53 388.05 418.842C398.461 417.534 407.586 420.249 416.43 425.654C419.707 426.766 419.707 426.766 423.241 426.789C425.742 424.831 425.742 424.831 427.782 421.893C441.554 405.45 461.717 396.354 482.272 391.597C483.367 391.341 484.462 391.085 485.589 390.821C527.781 382.729 576.372 395.437 611.899 418.847C614.063 420.251 614.063 420.251 617.363 419.978C622.432 400.161 627.078 380.267 631.553 360.308C632.067 358.02 632.583 355.733 633.098 353.445C636.832 336.869 640.531 320.285 644.195 303.694C644.534 302.16 644.873 300.626 645.212 299.092C645.379 298.336 645.546 297.58 645.718 296.801C646.388 293.77 647.058 290.74 647.728 287.71C648.225 285.461 648.721 283.213 649.218 280.964C654.167 258.56 659.342 236.219 664.816 213.937C665.187 212.414 665.188 212.414 665.566 210.861C666.023 208.994 666.483 207.127 666.949 205.262C667.897 201.377 668.447 198.099 668.447 194.071C663.907 193.121 659.366 192.177 654.825 191.233C652.672 190.784 652.672 190.784 650.476 190.327C641.498 188.463 632.509 186.66 623.509 184.905C621.458 184.503 619.408 184.101 617.358 183.698C614.323 183.103 611.287 182.511 608.249 181.928C605.388 181.379 602.528 180.819 599.669 180.257C598.821 180.098 597.973 179.938 597.1 179.774C589.564 178.275 582.747 176.332 577.63 170.231C574.462 163.895 576.977 155.426 578.49 148.848C578.699 147.907 578.908 146.966 579.123 145.996C579.799 142.956 580.488 139.92 581.178 136.884C581.646 134.79 582.112 132.696 582.579 130.602C584.642 121.36 586.748 112.128 588.907 102.908C589.224 101.553 589.54 100.199 589.866 98.8032C590.444 96.3511 591.027 93.9006 591.619 91.452C591.874 90.377 592.129 89.302 592.392 88.1944C592.613 87.2838 592.833 86.3732 593.06 85.4351C593.558 82.6232 593.604 79.9937 593.523 77.1438C592.526 76.9388 591.529 76.7337 590.502 76.5224C588.305 76.0703 586.107 75.6181 583.909 75.1657C579.618 74.2823 575.327 73.4003 571.036 72.5209C562.414 70.7522 553.797 68.9638 545.192 67.1131C543.681 66.7908 542.17 66.4687 540.659 66.147C537.822 65.5413 534.987 64.9278 532.154 64.3056C530.88 64.0351 529.606 63.7645 528.293 63.4858C526.628 63.1247 526.628 63.1247 524.93 62.7563C522.01 62.3867 520.211 62.5242 517.464 63.5213C517.089 63.8959 516.715 64.2705 516.329 64.6565C516.329 63.5326 516.329 62.4088 516.329 61.2508C515.368 61.0593 514.408 60.8678 513.419 60.6704C504.302 58.8516 495.186 57.0318 486.069 55.2107C481.384 54.2749 476.699 53.3395 472.014 52.405C467.48 51.5006 462.945 50.5951 458.411 49.6889C456.695 49.346 454.978 49.0034 453.261 48.6613C450.828 48.1764 448.395 47.69 445.963 47.2034C445.196 47.0509 444.429 46.8984 443.639 46.7412C439.839 45.9797 436.051 45.1841 432.273 44.3237C430.845 44.0011 429.418 43.6785 427.947 43.346C426.682 43.0512 425.417 42.7563 424.114 42.4525C420.883 41.6905 420.883 41.6905 417.565 43.0875C418.127 43.6494 418.127 43.6494 418.701 44.2227C417.577 43.4734 416.453 42.7242 415.295 41.9523ZM123.266 360.845C122.049 362.409 120.842 363.98 119.643 365.558C119.005 366.397 118.367 367.236 117.71 368.1C104.281 386.063 91.3026 408.132 94.03 431.33C96.307 436.738 99.4796 439.44 104.739 441.755C135.197 451.444 170.895 440.374 198.469 426.789C218.709 416.176 239.799 401.177 247.461 378.658C250.985 364.661 250.265 351.63 243.736 338.526C237.147 327.701 226.8 321.565 214.85 318.097C179.758 310.121 144.406 334.656 123.266 360.845ZM263.177 408.626C262.404 409.536 261.631 410.446 260.835 411.384C259.315 413.303 257.806 415.231 256.308 417.166C254.095 419.978 254.095 419.978 252.13 422.08C249.824 424.689 248.377 426.865 248.516 430.416C253.209 449.371 268.796 465.375 284.746 475.603C301.836 484.855 322.553 490.828 341.932 485.607C348.368 483.367 353.431 480.665 357.022 474.76C360.431 466.423 359.67 455.706 356.406 447.342C353.727 442.329 350.111 436.2 344.912 433.6C344.912 432.851 344.912 432.102 344.912 431.33C326.639 411.486 298.509 404.809 272.702 402.484C267.675 403.092 266.341 404.766 263.177 408.626ZM444.81 441.547C440.857 446.497 438.28 450.974 437.999 457.44C438.426 461.145 438.426 461.145 439.134 464.251C441.074 462.408 442.965 460.512 444.81 458.575C444.81 457.826 444.81 457.076 444.81 456.304C445.56 456.304 446.309 456.304 447.081 456.304C447.081 455.555 447.081 454.806 447.081 454.034C448.044 453.588 448.044 453.588 449.028 453.134C451.841 451.647 454.247 449.901 456.801 448.003C476.855 433.901 501.274 431.621 525.069 435.72C530.153 436.727 535.159 437.948 540.168 439.276C540.909 439.45 541.65 439.623 542.414 439.802C597.675 454.481 635.036 500.686 665.041 545.986C666.124 542.543 666.182 540.327 665.285 536.842C664.949 535.527 664.949 535.527 664.605 534.185C664.351 533.256 664.097 532.327 663.835 531.37C663.574 530.407 663.314 529.444 663.045 528.452C655.616 501.95 640.822 480.895 621.832 461.413C621.224 460.779 620.616 460.145 619.989 459.493C616.087 455.604 616.087 455.604 610.551 455.169C610.551 454.045 610.551 452.922 610.551 451.764C609.802 451.764 609.053 451.764 608.281 451.764C608.281 451.014 608.281 450.265 608.281 449.493C605.483 447.436 602.692 445.537 599.767 443.675C598.894 443.117 598.021 442.56 597.122 441.985C552.721 414.073 484.702 397.756 444.81 441.547ZM384.644 446.088C384.726 446.939 384.808 447.791 384.893 448.668C385.226 452.347 385.512 456.026 385.779 459.71C385.857 460.671 385.935 461.633 386.014 462.623C386.478 473.036 383.203 482.678 377.833 491.496C377.833 492.245 377.833 492.994 377.833 493.766C383.848 497.565 389.086 498.101 395.996 497.172C402.677 495.325 406.183 491.96 409.61 486.042C413.737 477.052 414.722 467.351 412.204 457.701C409.413 450.887 405.96 447.421 399.118 444.527C393.79 443.639 389.762 444.579 384.644 446.088Z" fill="#86C0D0"/>
<rect x="399.514" y="265.287" width="124.873" height="24.9747" rx="12.4873" transform="rotate(12 399.514 265.287)" fill="#3CD7EF"/>
<rect x="408.595" y="222.149" width="191.755" height="24.9747" rx="12.4873" transform="rotate(12 408.595 222.149)" fill="#3CD7EF"/>
<rect x="418.812" y="182.417" width="67.5416" height="24.9747" rx="12.4873" transform="rotate(12 418.812 182.417)" fill="#3CD7EF"/>
<path d="M662.544 166.253L622.203 93.3473L603.734 157.018L662.544 166.253Z" fill="#3CD7EF"/>
<ellipse cx="185.378" cy="368.437" rx="34.5" ry="21" transform="rotate(-30 185.378 368.437)" fill="#86C0D0"/>
</svg>
